<?xml version="1.0" encoding="UTF-8" standalone="no"?>
<!-- Created with Inkscape (http://www.inkscape.org/) -->

<svg
   xmlns:dc="http://purl.org/dc/elements/1.1/"
   xmlns:cc="http://creativecommons.org/ns#"
   xmlns:rdf="http://www.w3.org/1999/02/22-rdf-syntax-ns#"
   xmlns:svg="http://www.w3.org/2000/svg"
   xmlns="http://www.w3.org/2000/svg"
   xmlns:sodipodi="http://sodipodi.sourceforge.net/DTD/sodipodi-0.dtd"
   xmlns:inkscape="http://www.inkscape.org/namespaces/inkscape"
   id="svg4136"
   version="1.1"
   inkscape:version="0.91 r13725"
   xml:space="preserve"
   width="271.25"
   height="102.5"
   viewBox="0 0 271.25 102.5"
   sodipodi:docname="SSA_2023.svg"><metadata
     id="metadata4142"><rdf:RDF><cc:Work
         rdf:about=""><dc:format>image/svg+xml</dc:format><dc:type
           rdf:resource="http://purl.org/dc/dcmitype/StillImage" /><dc:title></dc:title></cc:Work></rdf:RDF></metadata><defs
     id="defs4140" /><sodipodi:namedview
     pagecolor="#ffffff"
     bordercolor="#666666"
     borderopacity="1"
     objecttolerance="10"
     gridtolerance="10"
     guidetolerance="10"
     inkscape:pageopacity="0"
     inkscape:pageshadow="2"
     inkscape:window-width="1536"
     inkscape:window-height="801"
     id="namedview4138"
     showgrid="false"
     inkscape:zoom="3.5133641"
     inkscape:cx="135.625"
     inkscape:cy="51.25"
     inkscape:window-x="-8"
     inkscape:window-y="-8"
     inkscape:window-maximized="1"
     inkscape:current-layer="g4144" /><g
     id="g4144"
     inkscape:groupmode="layer"
     inkscape:label="ink_ext_XXXXXX"
     transform="matrix(1.25,0,0,-1.25,0,102.5)"><g
       id="g4146"
       transform="scale(0.1,0.1)"><path
         d="m 0,0 2170,0 0,820 L 0,820 0,0 Z"
         style="fill:#53aee5;fill-opacity:1;fill-rule:nonzero;stroke:none"
         id="path4148"
         inkscape:connector-curvature="0" /><path
         d="m 887.988,634.047 -19.402,-63.41 38.602,0 -19.2,63.41 z m 32.207,-101.82 -6.007,17.8 -52.606,0 -6.008,-17.8 -24.207,0 48.418,140.031 16.199,0 48.411,-140.031 -24.2,0"
         style="fill:#ffffff;fill-opacity:1;fill-rule:nonzero;stroke:none"
         id="path4150"
         inkscape:connector-curvature="0" /><path
         d="m 973.23,578.035 c 0,-18.199 11.411,-28.605 27.21,-28.605 12.8,0 23.01,8.203 23.01,20.804 0,14.204 -12.61,18.805 -22.21,22.207 -25.603,9 -46.213,16.801 -46.213,44.809 0,23.203 20,38.41 43.411,38.41 25.202,0 44.612,-17.808 44.612,-43.812 l -23.01,0 c 0,13.8 -8,23.207 -20.997,23.207 -11.406,0 -21.008,-6 -21.008,-17.805 0,-11.406 10,-16.805 20.403,-20.605 21.802,-7.801 48.012,-17.004 48.012,-43.809 0,-28.809 -22.01,-44.008 -48.012,-44.008 -25.403,0 -48.211,17.805 -48.211,49.207 l 23.003,0"
         style="fill:#ffffff;fill-opacity:1;fill-rule:nonzero;stroke:none"
         id="path4152"
         inkscape:connector-curvature="0" /><path
         d="m 1118.8,532.227 c -3.4,-0.602 -9.8,-1.204 -16.2,-1.204 -10.61,0 -30.21,1.403 -30.21,32.809 l 0,43.41 -15.8,0 0,18.203 15.8,0 0,28.207 21.81,0 0,-28.207 21.41,0 0,-18.203 -21.41,0 0,-38.41 c 0,-16.199 5,-18.203 13.6,-18.203 3.4,0 8.8,0.402 11,0.801 l 0,-19.203"
         style="fill:#ffffff;fill-opacity:1;fill-rule:nonzero;stroke:none"
         id="path4154"
         inkscape:connector-curvature="0" /><path
         d="m 1205.09,578.84 c 0,16 -10.8,29.601 -27.61,29.601 -16.41,0 -27.21,-13.601 -27.21,-29.601 0,-16.008 10.8,-29.61 27.21,-29.61 16.81,0 27.61,13.602 27.61,29.61 z m 21.8,46.605 0,-93.218 -21.8,0 0,12.601 c -5.8,-9.398 -18.01,-15.004 -28.81,-15.004 -28.41,0 -47.81,22.61 -47.81,49.016 0,26.402 19.4,49.008 47.81,49.008 10.8,0 23.01,-5.602 28.81,-15.004 l 0,12.601 21.8,0"
         style="fill:#ffffff;fill-opacity:1;fill-rule:nonzero;stroke:none"
         id="path4156"
         inkscape:connector-curvature="0" /><path
         d="m 1305.45,532.227 c -3.4,-0.602 -9.8,-1.204 -16.2,-1.204 -10.61,0 -30.21,1.403 -30.21,32.809 l 0,43.41 -15.8,0 0,18.203 15.8,0 0,28.207 21.81,0 0,-28.207 21.41,0 0,-18.203 -21.41,0 0,-38.41 c 0,-16.199 5,-18.203 13.6,-18.203 3.4,0 8.8,0.402 11,0.801 l 0,-19.203"
         style="fill:#ffffff;fill-opacity:1;fill-rule:nonzero;stroke:none"
         id="path4158"
         inkscape:connector-curvature="0" /><path
         d="m 287.672,455.898 -18.41,-10.91 c -3.442,5.973 -6.719,9.871 -9.836,11.688 -3.25,2.074 -7.434,3.121 -12.567,3.121 -6.296,0 -11.523,-1.789 -15.675,-5.359 -4.157,-3.504 -6.239,-7.922 -6.239,-13.247 0,-7.336 5.453,-13.242 16.364,-17.73 l 15,-6.133 c 12.207,-4.933 21.136,-10.957 26.781,-18.058 5.656,-7.122 8.476,-15.832 8.476,-26.157 0,-13.828 -4.613,-25.261 -13.832,-34.285 -9.289,-9.094 -20.808,-13.633 -34.57,-13.633 -13.059,0 -23.832,3.868 -32.336,11.59 -8.383,7.727 -13.601,18.606 -15.683,32.629 l 22.984,5.059 c 1.043,-8.828 2.855,-14.93 5.457,-18.313 4.676,-6.492 11.492,-9.734 20.453,-9.734 7.074,0 12.949,2.375 17.625,7.109 4.676,4.746 7.012,10.75 7.012,18.02 0,2.918 -0.406,5.601 -1.215,8.035 -0.816,2.43 -2.078,4.68 -3.801,6.719 -1.722,2.05 -3.941,3.964 -6.672,5.754 -2.726,1.777 -5.972,3.484 -9.738,5.105 l -14.512,6.039 c -20.582,8.703 -30.875,21.426 -30.875,38.18 0,11.293 4.325,20.742 12.957,28.34 8.633,7.66 19.383,11.496 32.243,11.496 17.328,0 30.867,-8.446 40.609,-25.325"
         style="fill:#213566;fill-opacity:1;fill-rule:nonzero;stroke:none"
         id="path4160"
         inkscape:connector-curvature="0" /><path
         d="m 419.938,385.574 -22.305,51.129 -23.375,-51.129 45.68,0 z m 9.246,-21.336 -64.375,0 -16.75,-36.511 -24.446,0 74.41,159.816 71.778,-159.816 -24.836,0 -15.781,36.511"
         style="fill:#213566;fill-opacity:1;fill-rule:nonzero;stroke:none"
         id="path4162"
         inkscape:connector-curvature="0" /><path
         d="m 287.672,646.215 -18.41,-10.906 c -3.442,5.968 -6.719,9.867 -9.836,11.687 -3.25,2.074 -7.434,3.117 -12.567,3.117 -6.296,0 -11.523,-1.789 -15.675,-5.355 -4.157,-3.508 -6.239,-7.926 -6.239,-13.242 0,-7.34 5.453,-13.25 16.364,-17.731 l 15,-6.14 c 12.207,-4.934 21.136,-10.957 26.781,-18.059 5.656,-7.113 8.476,-15.832 8.476,-26.152 0,-13.832 -4.613,-25.258 -13.832,-34.286 -9.289,-9.089 -20.808,-13.636 -34.57,-13.636 -13.059,0 -23.832,3.867 -32.336,11.593 -8.383,7.723 -13.601,18.602 -15.683,32.625 l 22.984,5.067 c 1.043,-8.836 2.855,-14.938 5.457,-18.313 4.676,-6.496 11.492,-9.734 20.453,-9.734 7.074,0 12.949,2.367 17.625,7.105 4.676,4.739 7.012,10.75 7.012,18.02 0,2.922 -0.406,5.598 -1.215,8.031 -0.816,2.438 -2.078,4.68 -3.801,6.719 -1.722,2.051 -3.941,3.965 -6.672,5.754 -2.726,1.781 -5.972,3.484 -9.738,5.109 l -14.512,6.035 c -20.582,8.704 -30.875,21.426 -30.875,38.18 0,11.301 4.325,20.746 12.957,28.34 8.633,7.66 19.383,11.496 32.243,11.496 17.328,0 30.867,-8.441 40.609,-25.324"
         style="fill:#213566;fill-opacity:1;fill-rule:nonzero;stroke:none"
         id="path4164"
         inkscape:connector-curvature="0" /><path
         d="m 130.953,256.648 0,417.832 -21.91,0 0,-439.746 440.957,0 0,21.914 -419.047,0"
         style="fill:#ffffff;fill-opacity:1;fill-rule:nonzero;stroke:none"
         id="path4166"
         inkscape:connector-curvature="0" /><path
         d="m 858.516,462.207 -8.731,-28.539 17.371,0 -8.64,28.539 z m 14.492,-45.824 -2.695,8.012 -23.68,0 -2.707,-8.012 -10.891,0 21.789,63.015 7.293,0 21.789,-63.015 -10.898,0"
         style="fill:#ffffff;fill-opacity:1;fill-rule:nonzero;stroke:none"
         id="path4168"
         inkscape:connector-curvature="0" /><path
         d="m 952.539,436.637 c -2.793,-12.242 -14.414,-21.782 -29.894,-21.782 -20.614,0 -33.133,15.387 -33.133,33.129 0,17.106 12.246,32.95 32.051,32.95 18.73,0 28.984,-10.895 30.976,-24.489 l -10.898,0 c -1.536,8.645 -8.379,15.215 -18.731,15.215 -14.492,0 -22.773,-11.347 -22.773,-23.676 0,-12.964 8.554,-23.859 23.855,-23.859 7.297,0 15.129,5.309 17.199,12.512 l 11.348,0"
         style="fill:#ffffff;fill-opacity:1;fill-rule:nonzero;stroke:none"
         id="path4170"
         inkscape:connector-curvature="0" /><path
         d="m 1026.1,436.637 c -2.79,-12.242 -14.4,-21.782 -29.889,-21.782 -20.613,0 -33.125,15.387 -33.125,33.129 0,17.106 12.246,32.95 32.051,32.95 18.723,0 28.983,-10.895 30.963,-24.489 l -10.89,0 c -1.53,8.645 -8.37,15.215 -18.726,15.215 -14.492,0 -22.773,-11.347 -22.773,-23.676 0,-12.964 8.555,-23.859 23.848,-23.859 7.301,0 15.141,5.309 17.211,12.512 l 11.33,0"
         style="fill:#ffffff;fill-opacity:1;fill-rule:nonzero;stroke:none"
         id="path4172"
         inkscape:connector-curvature="0" /><path
         d="m 1074.79,457.344 c 0,6.933 -4.68,12.785 -11.88,12.785 l -12.25,0 0,-25.566 12.25,0 c 7.2,0 11.88,5.847 11.88,12.781 z m -34.48,22.054 22.6,0 c 13.51,0 22.24,-10.168 22.24,-22.054 0,-9.004 -5.04,-17.016 -13.32,-20.434 l 12.51,-20.527 -11.8,0 -11.52,18.906 -10.36,0 0,-18.906 -10.35,0 0,63.015"
         style="fill:#ffffff;fill-opacity:1;fill-rule:nonzero;stroke:none"
         id="path4174"
         inkscape:connector-curvature="0" /><path
         d="m 1110.06,470.129 0,-17.824 26.01,0 0,-9.278 -26.01,0 0,-17.375 26.01,0 0,-9.269 -36.36,0 0,63.015 36.36,0 0,-9.269 -26.01,0"
         style="fill:#ffffff;fill-opacity:1;fill-rule:nonzero;stroke:none"
         id="path4176"
         inkscape:connector-curvature="0" /><path
         d="m 1163.19,470.129 0,-44.477 10.09,0 c 14.04,0 22.05,10.985 22.05,22.239 0,11.254 -8.01,22.238 -22.05,22.238 l -10.09,0 z m 10.09,9.269 c 20.88,0 32.68,-15.57 32.68,-31.507 0,-15.934 -11.8,-31.508 -32.68,-31.508 l -20.44,0 0,63.015 20.44,0"
         style="fill:#ffffff;fill-opacity:1;fill-rule:nonzero;stroke:none"
         id="path4178"
         inkscape:connector-curvature="0" /><path
         d="m 1220.13,416.383 10.7109,0 0,63.0156 -10.7109,0 0,-63.0156 z"
         style="fill:#ffffff;fill-opacity:1;fill-rule:nonzero;stroke:none"
         id="path4180"
         inkscape:connector-curvature="0" /><path
         d="m 1257.49,470.129 -15.58,0 0,9.269 41.6,0 0,-9.269 -15.67,0 0,-53.746 -10.35,0 0,53.746"
         style="fill:#ffffff;fill-opacity:1;fill-rule:nonzero;stroke:none"
         id="path4182"
         inkscape:connector-curvature="0" /><path
         d="m 1305,470.129 0,-17.824 26.02,0 0,-9.278 -26.02,0 0,-17.375 26.02,0 0,-9.269 -36.37,0 0,63.015 36.37,0 0,-9.269 -26.02,0"
         style="fill:#ffffff;fill-opacity:1;fill-rule:nonzero;stroke:none"
         id="path4184"
         inkscape:connector-curvature="0" /><path
         d="m 1358.13,470.129 0,-44.477 10.09,0 c 14.05,0 22.05,10.985 22.05,22.239 0,11.254 -8,22.238 -22.05,22.238 l -10.09,0 z m 10.09,9.269 c 20.88,0 32.68,-15.57 32.68,-31.507 0,-15.934 -11.8,-31.508 -32.68,-31.508 l -20.44,0 0,63.015 20.44,0"
         style="fill:#ffffff;fill-opacity:1;fill-rule:nonzero;stroke:none"
         id="path4186"
         inkscape:connector-curvature="0" /><path
         d="m 1446.87,436.996 c 0,-8.191 5.13,-12.871 12.24,-12.871 5.76,0 10.35,3.691 10.35,9.359 0,6.395 -5.67,8.465 -9.99,9.996 -11.52,4.047 -20.8,7.559 -20.8,20.168 0,10.438 9.01,17.286 19.54,17.286 11.34,0 20.08,-8.012 20.08,-19.719 l -10.35,0 c 0,6.211 -3.6,10.445 -9.45,10.445 -5.14,0 -9.46,-2.707 -9.46,-8.012 0,-5.132 4.51,-7.562 9.18,-9.273 9.82,-3.512 21.6,-7.656 21.6,-19.719 0,-12.961 -9.9,-19.801 -21.6,-19.801 -11.43,0 -21.7,8.004 -21.7,22.141 l 10.36,0"
         style="fill:#ffffff;fill-opacity:1;fill-rule:nonzero;stroke:none"
         id="path4188"
         inkscape:connector-curvature="0" /><path
         d="m 1503.82,470.129 -15.58,0 0,9.269 41.59,0 0,-9.269 -15.66,0 0,-53.746 -10.35,0 0,53.746"
         style="fill:#ffffff;fill-opacity:1;fill-rule:nonzero;stroke:none"
         id="path4190"
         inkscape:connector-curvature="0" /><path
         d="m 1555.67,462.207 -8.74,-28.539 17.39,0 -8.65,28.539 z m 14.5,-45.824 -2.71,8.012 -23.67,0 -2.71,-8.012 -10.88,0 21.78,63.015 7.29,0 21.78,-63.015 -10.88,0"
         style="fill:#ffffff;fill-opacity:1;fill-rule:nonzero;stroke:none"
         id="path4192"
         inkscape:connector-curvature="0" /><path
         d="m 1597.07,470.129 -15.58,0 0,9.269 41.6,0 0,-9.269 -15.67,0 0,-53.746 -10.35,0 0,53.746"
         style="fill:#ffffff;fill-opacity:1;fill-rule:nonzero;stroke:none"
         id="path4194"
         inkscape:connector-curvature="0" /><path
         d="m 1634.24,416.383 10.7109,0 0,63.0156 -10.7109,0 0,-63.0156 z"
         style="fill:#ffffff;fill-opacity:1;fill-rule:nonzero;stroke:none"
         id="path4196"
         inkscape:connector-curvature="0" /><path
         d="m 1669.89,436.996 c 0,-8.191 5.14,-12.871 12.25,-12.871 5.76,0 10.35,3.691 10.35,9.359 0,6.395 -5.67,8.465 -9.99,9.996 -11.52,4.047 -20.8,7.559 -20.8,20.168 0,10.438 9,17.286 19.54,17.286 11.34,0 20.08,-8.012 20.08,-19.719 l -10.35,0 c 0,6.211 -3.61,10.445 -9.46,10.445 -5.13,0 -9.45,-2.707 -9.45,-8.012 0,-5.132 4.5,-7.562 9.18,-9.273 9.81,-3.512 21.6,-7.656 21.6,-19.719 0,-12.961 -9.9,-19.801 -21.6,-19.801 -11.44,0 -21.7,8.004 -21.7,22.141 l 10.35,0"
         style="fill:#ffffff;fill-opacity:1;fill-rule:nonzero;stroke:none"
         id="path4198"
         inkscape:connector-curvature="0" /><path
         d="m 1726.84,470.129 -15.58,0 0,9.269 41.59,0 0,-9.269 -15.66,0 0,-53.746 -10.35,0 0,53.746"
         style="fill:#ffffff;fill-opacity:1;fill-rule:nonzero;stroke:none"
         id="path4200"
         inkscape:connector-curvature="0" /><path
         d="m 1764,416.383 10.7188,0 0,63.0156 -10.7188,0 0,-63.0156 z"
         style="fill:#ffffff;fill-opacity:1;fill-rule:nonzero;stroke:none"
         id="path4202"
         inkscape:connector-curvature="0" /><path
         d="m 1852.14,436.637 c -2.78,-12.242 -14.41,-21.782 -29.88,-21.782 -20.62,0 -33.14,15.387 -33.14,33.129 0,17.106 12.25,32.95 32.05,32.95 18.73,0 29,-10.895 30.97,-24.489 l -10.89,0 c -1.53,8.645 -8.37,15.215 -18.73,15.215 -14.49,0 -22.77,-11.347 -22.77,-23.676 0,-12.964 8.55,-23.859 23.85,-23.859 7.3,0 15.13,5.309 17.2,12.512 l 11.34,0"
         style="fill:#ffffff;fill-opacity:1;fill-rule:nonzero;stroke:none"
         id="path4204"
         inkscape:connector-curvature="0" /><path
         d="m 1866.3,416.383 10.7109,0 0,63.0156 -10.7109,0 0,-63.0156 z"
         style="fill:#ffffff;fill-opacity:1;fill-rule:nonzero;stroke:none"
         id="path4206"
         inkscape:connector-curvature="0" /><path
         d="m 1913.23,462.207 -8.74,-28.539 17.39,0 -8.65,28.539 z m 14.49,-45.824 -2.7,8.012 -23.67,0 -2.71,-8.012 -10.89,0 21.79,63.015 7.29,0 21.78,-63.015 -10.89,0"
         style="fill:#ffffff;fill-opacity:1;fill-rule:nonzero;stroke:none"
         id="path4208"
         inkscape:connector-curvature="0" /><path
         d="m 1985.75,434.566 0,44.832 10.35,0 0,-63.015 -11.33,0 -24.95,44.832 0,-44.832 -10.35,0 0,63.015 11.35,0 24.93,-44.832"
         style="fill:#ffffff;fill-opacity:1;fill-rule:nonzero;stroke:none"
         id="path4210"
         inkscape:connector-curvature="0" /><path
         d="m 861.738,159.004 -8.164,-4.348 c -1.289,2.641 -2.89,3.957 -4.797,3.957 -0.906,0 -1.687,-0.3 -2.332,-0.898 -0.644,-0.606 -0.957,-1.367 -0.957,-2.305 0,-1.64 1.895,-3.269 5.703,-4.883 5.254,-2.257 8.782,-4.336 10.594,-6.242 1.82,-1.902 2.727,-4.461 2.727,-7.683 0,-4.141 -1.524,-7.598 -4.571,-10.372 -2.961,-2.636 -6.535,-3.964 -10.722,-3.964 -7.176,0 -12.266,3.504 -15.254,10.507 l 8.437,3.907 c 1.172,-2.051 2.071,-3.352 2.688,-3.907 1.199,-1.113 2.637,-1.668 4.305,-1.668 3.339,0 5.007,1.524 5.007,4.571 0,1.758 -1.289,3.394 -3.867,4.922 -0.992,0.496 -1.988,0.984 -2.984,1.453 -0.996,0.469 -2.004,0.945 -3.039,1.445 -2.871,1.406 -4.883,2.813 -6.055,4.219 -1.504,1.789 -2.246,4.082 -2.246,6.894 0,3.731 1.269,6.797 3.828,9.239 2.598,2.422 5.762,3.64 9.492,3.64 5.469,0 9.551,-2.82 12.207,-8.484"
         style="fill:#213566;fill-opacity:1;fill-rule:nonzero;stroke:none"
         id="path4212"
         inkscape:connector-curvature="0" /><path
         d="m 884.48,157.07 0,-33.574 -9.89,0 0,33.574 -4.219,0 0,9.239 4.219,0 0,15.683 9.89,0 0,-15.683 7.688,0 0,-9.239 -7.688,0"
         style="fill:#213566;fill-opacity:1;fill-rule:nonzero;stroke:none"
         id="path4214"
         inkscape:connector-curvature="0" /><path
         d="m 908.672,145.039 c 0,-4.101 1.101,-7.441 3.301,-10.019 2.257,-2.618 5.097,-3.915 8.523,-3.915 3.664,0 6.621,1.258 8.879,3.778 2.258,2.605 3.379,5.918 3.379,9.93 0,4.015 -1.121,7.328 -3.379,9.933 -2.258,2.551 -5.187,3.828 -8.789,3.828 -3.398,0 -6.238,-1.289 -8.523,-3.867 -2.258,-2.617 -3.391,-5.84 -3.391,-9.668 z m 23.476,21.27 9.922,0 0,-42.813 -9.922,0 0,4.492 c -4.082,-3.808 -8.457,-5.722 -13.144,-5.722 -5.918,0 -10.813,2.148 -14.68,6.425 -3.836,4.356 -5.75,9.805 -5.75,16.348 0,6.406 1.914,11.758 5.75,16.035 3.84,4.278 8.645,6.414 14.414,6.414 4.985,0 9.446,-2.05 13.41,-6.148 l 0,4.969"
         style="fill:#213566;fill-opacity:1;fill-rule:nonzero;stroke:none"
         id="path4216"
         inkscape:connector-curvature="0" /><path
         d="m 965.645,157.07 0,-33.574 -9.883,0 0,33.574 -4.219,0 0,9.239 4.219,0 0,15.683 9.883,0 0,-15.683 7.695,0 0,-9.239 -7.695,0"
         style="fill:#213566;fill-opacity:1;fill-rule:nonzero;stroke:none"
         id="path4218"
         inkscape:connector-curvature="0" /><path
         d="m 1005.84,159.004 -8.184,-4.348 c -1.289,2.641 -2.883,3.957 -4.785,3.957 -0.906,0 -1.68,-0.3 -2.324,-0.898 -0.645,-0.606 -0.977,-1.367 -0.977,-2.305 0,-1.64 1.914,-3.269 5.723,-4.883 5.237,-2.257 8.767,-4.336 10.587,-6.242 1.82,-1.902 2.72,-4.461 2.72,-7.683 0,-4.141 -1.52,-7.598 -4.57,-10.372 -2.96,-2.636 -6.53,-3.964 -10.717,-3.964 -7.18,0 -12.258,3.504 -15.247,10.507 l 8.438,3.907 c 1.172,-2.051 2.059,-3.352 2.676,-3.907 1.203,-1.113 2.636,-1.668 4.304,-1.668 3.34,0 5.012,1.524 5.012,4.571 0,1.758 -1.289,3.394 -3.867,4.922 -0.996,0.496 -1.992,0.984 -2.988,1.453 -0.996,0.469 -2.012,0.945 -3.028,1.445 -2.871,1.406 -4.902,2.813 -6.074,4.219 -1.484,1.789 -2.234,4.082 -2.234,6.894 0,3.731 1.277,6.797 3.816,9.239 2.617,2.422 5.781,3.64 9.492,3.64 5.489,0 9.547,-2.82 12.227,-8.484"
         style="fill:#213566;fill-opacity:1;fill-rule:nonzero;stroke:none"
         id="path4220"
         inkscape:connector-curvature="0" /><path
         d="m 1026.46,145.039 c 0,-4.277 1.16,-7.668 3.44,-10.156 2.35,-2.52 5.43,-3.778 9.27,-3.778 3.87,0 6.96,1.239 9.27,3.739 2.32,2.48 3.47,5.808 3.47,9.969 0,4.164 -1.15,7.492 -3.47,9.972 -2.35,2.52 -5.43,3.789 -9.27,3.789 -3.78,0 -6.85,-1.269 -9.19,-3.789 -2.34,-2.519 -3.52,-5.762 -3.52,-9.746 z m -10.09,0.176 c 0,6.172 2.2,11.433 6.63,15.769 4.42,4.336 9.81,6.504 16.17,6.504 6.39,0 11.81,-2.175 16.26,-6.55 4.39,-4.356 6.59,-9.727 6.59,-16.075 0,-6.425 -2.22,-11.797 -6.63,-16.133 -4.45,-4.304 -9.92,-6.464 -16.4,-6.464 -6.41,0 -11.78,2.207 -16.12,6.601 -4.33,4.336 -6.5,9.785 -6.5,16.348"
         style="fill:#213566;fill-opacity:1;fill-rule:nonzero;stroke:none"
         id="path4222"
         inkscape:connector-curvature="0" /><path
         d="m 1106.69,164.453 0,-13.137 c -2.26,2.754 -4.28,4.641 -6.06,5.676 -1.76,1.055 -3.83,1.582 -6.2,1.582 -3.73,0 -6.81,-1.308 -9.27,-3.918 -2.46,-2.605 -3.7,-5.867 -3.7,-9.793 0,-4.023 1.2,-7.312 3.56,-9.89 2.4,-2.578 5.47,-3.868 9.19,-3.868 2.37,0 4.46,0.516 6.28,1.532 1.76,0.996 3.83,2.929 6.2,5.801 l 0,-13.047 c -4.01,-2.078 -8.03,-3.125 -12.04,-3.125 -6.62,0 -12.16,2.148 -16.61,6.425 -4.46,4.297 -6.68,9.649 -6.68,16.036 0,6.386 2.25,11.777 6.77,16.171 4.51,4.395 10.04,6.59 16.61,6.59 4.22,0 8.2,-1.004 11.95,-3.035"
         style="fill:#213566;fill-opacity:1;fill-rule:nonzero;stroke:none"
         id="path4224"
         inkscape:connector-curvature="0" /><path
         d="m 1118.71,128.418 c 0,1.641 0.6,3.066 1.8,4.27 1.2,1.199 2.63,1.804 4.3,1.804 1.67,0 3.11,-0.605 4.31,-1.804 1.2,-1.204 1.8,-2.637 1.8,-4.309 0,-1.699 -0.6,-3.145 -1.8,-4.356 -1.17,-1.171 -2.61,-1.757 -4.31,-1.757 -1.72,0 -3.17,0.586 -4.34,1.757 -1.17,1.172 -1.76,2.637 -1.76,4.395"
         style="fill:#213566;fill-opacity:1;fill-rule:nonzero;stroke:none"
         id="path4226"
         inkscape:connector-curvature="0" /><path
         d="m 1153.93,145.039 c 0,-4.277 1.15,-7.668 3.43,-10.156 2.35,-2.52 5.43,-3.778 9.27,-3.778 3.87,0 6.96,1.239 9.27,3.739 2.32,2.48 3.48,5.808 3.48,9.969 0,4.164 -1.16,7.492 -3.48,9.972 -2.35,2.52 -5.43,3.789 -9.27,3.789 -3.78,0 -6.84,-1.269 -9.19,-3.789 -2.34,-2.519 -3.51,-5.762 -3.51,-9.746 z m -10.1,0.176 c 0,6.172 2.21,11.433 6.63,15.769 4.42,4.336 9.81,6.504 16.17,6.504 6.39,0 11.81,-2.175 16.26,-6.55 4.4,-4.356 6.59,-9.727 6.59,-16.075 0,-6.425 -2.21,-11.797 -6.63,-16.133 -4.45,-4.304 -9.92,-6.464 -16.39,-6.464 -6.42,0 -11.79,2.207 -16.13,6.601 -4.33,4.336 -6.5,9.785 -6.5,16.348"
         style="fill:#213566;fill-opacity:1;fill-rule:nonzero;stroke:none"
         id="path4228"
         inkscape:connector-curvature="0" /><path
         d="m 1200.84,166.309 9.88,0 0,-3.829 c 1.82,1.907 3.44,3.204 4.85,3.907 1.42,0.742 3.12,1.101 5.09,1.101 2.6,0 5.34,-0.847 8.17,-2.547 l -4.52,-9.05 c -1.88,1.343 -3.7,2.019 -5.5,2.019 -5.39,0 -8.09,-4.07 -8.09,-12.219 l 0,-22.195 -9.88,0 0,42.813"
         style="fill:#213566;fill-opacity:1;fill-rule:nonzero;stroke:none"
         id="path4230"
         inkscape:connector-curvature="0" /><path
         d="m 1267.3,144.813 c 0,4.164 -1.11,7.492 -3.34,9.972 -2.25,2.559 -5.13,3.828 -8.65,3.828 -3.75,0 -6.72,-1.386 -8.88,-4.179 -1.96,-2.481 -2.94,-5.704 -2.94,-9.668 0,-3.887 0.98,-7.09 2.94,-9.571 2.14,-2.734 5.09,-4.09 8.88,-4.09 3.77,0 6.76,1.375 8.97,4.129 2.01,2.493 3.02,5.684 3.02,9.579 z m 9.5,-20.301 c 0,-2.024 -0.07,-3.809 -0.2,-5.332 -0.14,-1.543 -0.31,-2.903 -0.55,-4.075 -0.7,-3.218 -2.09,-5.984 -4.14,-8.308 -3.86,-4.453 -9.18,-6.68 -15.94,-6.68 -5.72,0 -10.42,1.543 -14.11,4.617 -3.81,3.164 -6,7.551 -6.59,13.137 l 9.93,0 c 0.39,-2.109 1.01,-3.73 1.89,-4.875 2.05,-2.664 5.04,-3.992 8.96,-3.992 7.24,0 10.86,4.434 10.86,13.309 l 0,5.98 c -3.92,-4.016 -8.45,-6.027 -13.58,-6.027 -5.83,0 -10.61,2.109 -14.33,6.328 -3.75,4.277 -5.62,9.629 -5.62,16.047 0,6.238 1.74,11.543 5.23,15.906 3.75,4.629 8.69,6.941 14.85,6.941 5.39,0 9.88,-2 13.45,-6.023 l 0,4.844 9.89,0 0,-41.797"
         style="fill:#213566;fill-opacity:1;fill-rule:nonzero;stroke:none"
         id="path4232"
         inkscape:connector-curvature="0" /><path
         d="m 1291.72,128.418 c 0,1.641 0.6,3.066 1.8,4.27 1.21,1.199 2.63,1.804 4.31,1.804 1.66,0 3.11,-0.605 4.3,-1.804 1.21,-1.204 1.81,-2.637 1.81,-4.309 0,-1.699 -0.6,-3.145 -1.81,-4.356 -1.17,-1.171 -2.6,-1.757 -4.3,-1.757 -1.74,0 -3.18,0.586 -4.35,1.757 -1.18,1.172 -1.76,2.637 -1.76,4.395"
         style="fill:#213566;fill-opacity:1;fill-rule:nonzero;stroke:none"
         id="path4234"
         inkscape:connector-curvature="0" /><path
         d="m 1326.93,145.039 c 0,-4.101 1.11,-7.441 3.3,-10.019 2.26,-2.618 5.1,-3.915 8.53,-3.915 3.66,0 6.62,1.258 8.88,3.778 2.25,2.605 3.38,5.918 3.38,9.93 0,4.015 -1.13,7.328 -3.38,9.933 -2.26,2.551 -5.19,3.828 -8.79,3.828 -3.4,0 -6.24,-1.289 -8.53,-3.867 -2.25,-2.617 -3.39,-5.84 -3.39,-9.668 z m 23.48,21.27 9.92,0 0,-42.813 -9.92,0 0,4.492 c -4.08,-3.808 -8.46,-5.722 -13.14,-5.722 -5.92,0 -10.81,2.148 -14.68,6.425 -3.84,4.356 -5.75,9.805 -5.75,16.348 0,6.406 1.91,11.758 5.75,16.035 3.84,4.278 8.64,6.414 14.41,6.414 4.98,0 9.45,-2.05 13.41,-6.148 l 0,4.969"
         style="fill:#213566;fill-opacity:1;fill-rule:nonzero;stroke:none"
         id="path4236"
         inkscape:connector-curvature="0" /><path
         d="m 1383.6,166.309 0,-24.571 c 0,-7.09 2.81,-10.633 8.39,-10.633 5.61,0 8.4,3.543 8.4,10.633 l 0,24.571 9.88,0 0,-24.786 c 0,-3.437 -0.42,-6.386 -1.27,-8.886 -0.82,-2.227 -2.24,-4.231 -4.25,-6.016 -3.34,-2.898 -7.6,-4.355 -12.76,-4.355 -5.11,0 -9.35,1.457 -12.69,4.355 -2.05,1.785 -3.5,3.789 -4.36,6.016 -0.82,1.992 -1.23,4.961 -1.23,8.886 l 0,24.786 9.89,0"
         style="fill:#213566;fill-opacity:1;fill-rule:nonzero;stroke:none"
         id="path4238"
         inkscape:connector-curvature="0" /><path
         d="m 1455.57,198.477 8.16,-3.614 -38.85,-89.902 -8.08,3.644 38.77,89.872"
         style="fill:#213566;fill-opacity:1;fill-rule:nonzero;stroke:none"
         id="path4240"
         inkscape:connector-curvature="0" /><path
         d="m 1479.28,145.039 c 0,-4.101 1.09,-7.441 3.29,-10.019 2.25,-2.618 5.1,-3.915 8.52,-3.915 3.67,0 6.62,1.258 8.88,3.778 2.26,2.605 3.39,5.918 3.39,9.93 0,4.015 -1.13,7.328 -3.39,9.933 -2.26,2.551 -5.18,3.828 -8.79,3.828 -3.4,0 -6.24,-1.289 -8.52,-3.867 -2.26,-2.617 -3.38,-5.84 -3.38,-9.668 z m 23.45,21.27 9.95,0 0,-42.813 -9.95,0 0,4.492 c -4.06,-3.808 -8.44,-5.722 -13.13,-5.722 -5.92,0 -10.81,2.148 -14.68,6.425 -3.84,4.356 -5.76,9.805 -5.76,16.348 0,6.406 1.92,11.758 5.76,16.035 3.84,4.278 8.64,6.414 14.42,6.414 4.98,0 9.45,-2.05 13.39,-6.148 l 0,4.969"
         style="fill:#213566;fill-opacity:1;fill-rule:nonzero;stroke:none"
         id="path4242"
         inkscape:connector-curvature="0" /><path
         d="m 1550.92,159.004 -8.17,-4.348 c -1.29,2.641 -2.89,3.957 -4.79,3.957 -0.91,0 -1.69,-0.3 -2.33,-0.898 -0.65,-0.606 -0.96,-1.367 -0.96,-2.305 0,-1.64 1.89,-3.269 5.7,-4.883 5.26,-2.257 8.78,-4.336 10.6,-6.242 1.81,-1.902 2.72,-4.461 2.72,-7.683 0,-4.141 -1.52,-7.598 -4.57,-10.372 -2.96,-2.636 -6.53,-3.964 -10.72,-3.964 -7.18,0 -12.27,3.504 -15.26,10.507 l 8.44,3.907 c 1.17,-2.051 2.07,-3.352 2.69,-3.907 1.2,-1.113 2.63,-1.668 4.3,-1.668 3.34,0 5.01,1.524 5.01,4.571 0,1.758 -1.29,3.394 -3.86,4.922 -1,0.496 -2,0.984 -2.99,1.453 -1,0.469 -2,0.945 -3.04,1.445 -2.87,1.406 -4.88,2.813 -6.05,4.219 -1.51,1.789 -2.25,4.082 -2.25,6.894 0,3.731 1.27,6.797 3.83,9.239 2.6,2.422 5.76,3.64 9.49,3.64 5.47,0 9.55,-2.82 12.21,-8.484"
         style="fill:#213566;fill-opacity:1;fill-rule:nonzero;stroke:none"
         id="path4244"
         inkscape:connector-curvature="0" /><path
         d="m 1573.66,157.07 0,-33.574 -9.89,0 0,33.574 -4.22,0 0,9.239 4.22,0 0,15.683 9.89,0 0,-15.683 7.69,0 0,-9.239 -7.69,0"
         style="fill:#213566;fill-opacity:1;fill-rule:nonzero;stroke:none"
         id="path4246"
         inkscape:connector-curvature="0" /><path
         d="m 1597.85,145.039 c 0,-4.101 1.11,-7.441 3.3,-10.019 2.26,-2.618 5.1,-3.915 8.53,-3.915 3.66,0 6.62,1.258 8.87,3.778 2.26,2.605 3.38,5.918 3.38,9.93 0,4.015 -1.12,7.328 -3.38,9.933 -2.25,2.551 -5.18,3.828 -8.78,3.828 -3.4,0 -6.24,-1.289 -8.53,-3.867 -2.26,-2.617 -3.39,-5.84 -3.39,-9.668 z m 23.48,21.27 9.92,0 0,-42.813 -9.92,0 0,4.492 c -4.08,-3.808 -8.46,-5.722 -13.15,-5.722 -5.91,0 -10.81,2.148 -14.67,6.425 -3.84,4.356 -5.76,9.805 -5.76,16.348 0,6.406 1.92,11.758 5.76,16.035 3.83,4.278 8.64,6.414 14.41,6.414 4.98,0 9.44,-2.05 13.41,-6.148 l 0,4.969"
         style="fill:#213566;fill-opacity:1;fill-rule:nonzero;stroke:none"
         id="path4248"
         inkscape:connector-curvature="0" /><path
         d="m 1654.82,157.07 0,-33.574 -9.88,0 0,33.574 -4.22,0 0,9.239 4.22,0 0,15.683 9.88,0 0,-15.683 7.7,0 0,-9.239 -7.7,0"
         style="fill:#213566;fill-opacity:1;fill-rule:nonzero;stroke:none"
         id="path4250"
         inkscape:connector-curvature="0" /><path
         d="m 891.324,303.594 -28.613,-69.649 -28.43,69.649 8.176,0 20.254,-51.367 20.437,51.367 8.176,0"
         style="fill:#213566;fill-opacity:1;fill-rule:nonzero;stroke:none"
         id="path4252"
         inkscape:connector-curvature="0" /><path
         d="m 924.469,257.246 c 0,4.59 -1.27,8.223 -3.801,10.918 -2.539,2.676 -5.918,4.024 -10.137,4.024 -4.187,0 -7.586,-1.407 -10.215,-4.18 -2.617,-2.793 -3.925,-6.465 -3.925,-11.035 0,-4.629 1.281,-8.399 3.867,-11.289 2.57,-2.911 5.879,-4.356 9.922,-4.356 4.101,0 7.511,1.485 10.226,4.453 2.703,2.989 4.063,6.797 4.063,11.465 z m 7.207,-21.504 -7.207,0 0,6.953 c -1.438,-2.695 -3.449,-4.765 -6.047,-6.172 -2.586,-1.425 -5.645,-2.148 -9.16,-2.148 -5.86,0 -10.684,2.129 -14.453,6.387 -3.789,4.238 -5.672,9.687 -5.672,16.308 0,6.465 1.894,11.739 5.691,15.84 3.789,4.082 8.664,6.133 14.61,6.133 3.371,0 6.339,-0.664 8.925,-1.992 2.571,-1.309 4.61,-3.203 6.106,-5.664 l 0,6.367 7.207,0 0,-42.012"
         style="fill:#213566;fill-opacity:1;fill-rule:nonzero;stroke:none"
         id="path4254"
         inkscape:connector-curvature="0" /><path
         d="m 944.684,235.742 7.16797,0 0,74.2773 -7.16797,0 0,-74.2773 z"
         style="fill:#213566;fill-opacity:1;fill-rule:nonzero;stroke:none"
         id="path4256"
         inkscape:connector-curvature="0" /><path
         d="m 972.953,235.742 -7.207,0 0,42.012 7.207,0 0,-42.012 z m 1.36,58.594 c 0,-1.348 -0.489,-2.52 -1.465,-3.477 -0.989,-0.976 -2.149,-1.445 -3.496,-1.445 -1.348,0 -2.5,0.469 -3.477,1.445 -0.957,0.957 -1.445,2.129 -1.445,3.477 0,1.348 0.488,2.5 1.445,3.477 0.977,0.996 2.129,1.484 3.477,1.484 1.347,0 2.507,-0.488 3.496,-1.484 0.976,-0.977 1.465,-2.129 1.465,-3.477"
         style="fill:#213566;fill-opacity:1;fill-rule:nonzero;stroke:none"
         id="path4258"
         inkscape:connector-curvature="0" /><path
         d="m 1019.17,257.246 c 0,4.59 -1.26,8.223 -3.79,10.918 -2.54,2.676 -5.92,4.024 -10.14,4.024 -4.19,0 -7.588,-1.407 -10.217,-4.18 -2.617,-2.793 -3.925,-6.465 -3.925,-11.035 0,-4.629 1.281,-8.399 3.867,-11.289 2.57,-2.911 5.875,-4.356 9.925,-4.356 4.1,0 7.51,1.485 10.22,4.453 2.71,2.989 4.06,6.797 4.06,11.465 z m 7.21,-21.504 -7.21,0 0,6.953 c -1.43,-2.695 -3.44,-4.765 -6.04,-6.172 -2.59,-1.425 -5.64,-2.148 -9.16,-2.148 -5.861,0 -10.685,2.129 -14.454,6.387 -3.789,4.238 -5.672,9.687 -5.672,16.308 0,6.465 1.894,11.739 5.691,15.84 3.789,4.082 8.664,6.133 14.615,6.133 3.36,0 6.33,-0.664 8.92,-1.992 2.57,-1.309 4.61,-3.203 6.1,-5.664 l 0,38.633 7.21,0 0,-74.278"
         style="fill:#213566;fill-opacity:1;fill-rule:nonzero;stroke:none"
         id="path4260"
         inkscape:connector-curvature="0" /><path
         d="m 1100.37,253.848 c 0,-6.7 -1.35,-11.621 -4.06,-14.766 -2.7,-3.125 -6.93,-4.707 -12.67,-4.707 -5.77,0 -10.01,1.582 -12.7,4.707 -2.7,3.145 -4.04,8.066 -4.04,14.766 l 0,23.906 7.21,0 0,-23.633 c 0,-4.492 0.72,-7.734 2.16,-9.766 1.46,-2.011 3.91,-3.027 7.37,-3.027 3.45,0 5.9,0.996 7.32,2.988 1.42,1.993 2.13,5.254 2.13,9.805 l 0,23.633 7.28,0 0,-23.906"
         style="fill:#213566;fill-opacity:1;fill-rule:nonzero;stroke:none"
         id="path4262"
         inkscape:connector-curvature="0" /><path
         d="m 1147.71,235.742 -7.2,0 0,25.098 c 0,4.082 -0.72,7.07 -2.19,8.965 -1.44,1.914 -3.75,2.851 -6.91,2.851 -3.62,0 -6.35,-1.406 -8.25,-4.258 -1.89,-2.832 -2.83,-6.992 -2.83,-12.48 l 0,-20.176 -7.17,0 0,42.012 7.17,0 0,-6.191 c 1.25,2.5 3.01,4.355 5.28,5.605 2.24,1.25 5,1.875 8.26,1.875 4.29,0 7.69,-1.426 10.15,-4.277 2.46,-2.832 3.69,-6.817 3.69,-11.953 l 0,-27.071"
         style="fill:#213566;fill-opacity:1;fill-rule:nonzero;stroke:none"
         id="path4264"
         inkscape:connector-curvature="0" /><path
         d="m 1174.9,271.309 -6.68,0 0,-35.567 -7.17,0 0,35.567 -5.05,0 0,6.445 5.05,0 0,17.012 7.17,0 0,-17.012 6.68,0 0,-6.445"
         style="fill:#213566;fill-opacity:1;fill-rule:nonzero;stroke:none"
         id="path4266"
         inkscape:connector-curvature="0" /><path
         d="m 1190.72,235.742 -7.2,0 0,42.012 7.2,0 0,-42.012 z m 1.35,58.594 c 0,-1.348 -0.49,-2.52 -1.46,-3.477 -0.98,-0.976 -2.15,-1.445 -3.5,-1.445 -1.35,0 -2.5,0.469 -3.48,1.445 -0.95,0.957 -1.44,2.129 -1.44,3.477 0,1.348 0.49,2.5 1.44,3.477 0.98,0.996 2.13,1.484 3.48,1.484 1.35,0 2.52,-0.488 3.5,-1.484 0.97,-0.977 1.46,-2.129 1.46,-3.477"
         style="fill:#213566;fill-opacity:1;fill-rule:nonzero;stroke:none"
         id="path4268"
         inkscape:connector-curvature="0" /><path
         d="m 1204.63,235.742 7.1719,0 0,74.2773 -7.1719,0 0,-74.2773 z"
         style="fill:#213566;fill-opacity:1;fill-rule:nonzero;stroke:none"
         id="path4270"
         inkscape:connector-curvature="0" /><path
         d="m 1293.79,254.727 c 0,-6.211 -1.88,-11.153 -5.63,-14.825 -3.75,-3.672 -8.88,-5.527 -15.41,-5.527 -6.21,0 -11.09,1.621 -14.64,4.863 -3.54,3.242 -5.41,7.774 -5.63,13.614 l 7.31,0 c 0.17,-3.75 1.4,-6.68 3.71,-8.75 2.3,-2.09 5.39,-3.125 9.25,-3.125 4.42,0 7.84,1.211 10.26,3.652 2.42,2.422 3.63,5.859 3.63,10.273 0,4.258 -1.25,7.559 -3.71,9.903 -2.48,2.343 -6.02,3.515 -10.63,3.515 l -2.24,0 0,6.582 2.17,0 c 4.22,0 7.42,1.036 9.59,3.086 2.18,2.051 3.28,5.059 3.28,9.043 0,3.34 -1.06,6.074 -3.19,8.184 -2.12,2.109 -4.94,3.164 -8.41,3.164 -3.32,0 -6.02,-0.84 -8.11,-2.5 -2.09,-1.641 -3.4,-4.004 -3.89,-7.051 l -6.91,0 c 0.53,5.098 2.48,9.063 5.86,11.895 3.36,2.832 7.79,4.238 13.3,4.238 5.74,0 10.27,-1.602 13.59,-4.805 3.3,-3.222 4.96,-7.519 4.96,-12.949 0,-3.984 -1.01,-7.402 -3.02,-10.254 -2.03,-2.871 -4.75,-4.629 -8.15,-5.293 3.81,-0.683 6.88,-2.558 9.2,-5.625 2.31,-3.086 3.46,-6.855 3.46,-11.308"
         style="fill:#213566;fill-opacity:1;fill-rule:nonzero;stroke:none"
         id="path4272"
         inkscape:connector-curvature="0" /><path
         d="m 1327.85,235.742 -7.28,0 0,60.918 -12.89,0 3.34,6.934 16.83,0 0,-67.852"
         style="fill:#213566;fill-opacity:1;fill-rule:nonzero;stroke:none"
         id="path4274"
         inkscape:connector-curvature="0" /><path
         d="m 1427.71,269.668 c 0,8.73 -2.5,15.391 -7.48,19.961 -4.98,4.57 -12.24,6.855 -21.79,6.855 l -6.37,0 0,-53.613 5.59,0 c 10.33,0 17.93,2.188 22.77,6.543 4.84,4.375 7.28,11.113 7.28,20.254 z m 7.56,-0.078 c 0,-11.172 -3.2,-19.59 -9.61,-25.293 -6.4,-5.703 -15.84,-8.555 -28.28,-8.555 l -12.87,0 0,67.852 13.32,0 c 12.05,0 21.31,-2.949 27.78,-8.848 6.42,-5.898 9.66,-14.297 9.66,-25.156"
         style="fill:#213566;fill-opacity:1;fill-rule:nonzero;stroke:none"
         id="path4276"
         inkscape:connector-curvature="0" /><path
         d="m 1476.39,260.762 c -0.37,3.593 -1.72,6.406 -4.05,8.398 -2.3,2.012 -5.31,3.028 -9,3.028 -3.55,0 -6.54,-1.036 -9,-3.106 -2.46,-2.07 -3.91,-4.844 -4.36,-8.32 l 26.41,0 z m 7.16,-5.098 -33.75,0 c 0.28,-4.551 1.61,-8.066 4.03,-10.586 2.42,-2.5 5.64,-3.75 9.69,-3.75 3.08,0 5.68,0.606 7.85,1.817 2.15,1.23 3.84,3.046 5.11,5.488 l 6.02,-3.164 c -1.93,-3.672 -4.51,-6.426 -7.71,-8.301 -3.21,-1.855 -7,-2.793 -11.35,-2.793 -6.33,0 -11.39,2.07 -15.16,6.211 -3.75,4.121 -5.64,9.59 -5.64,16.387 0,6.328 1.99,11.582 5.97,15.781 3.99,4.18 8.89,6.289 14.73,6.289 5.98,0 10.84,-1.934 14.59,-5.762 3.75,-3.847 5.62,-8.886 5.62,-15.117 l 0,-2.5"
         style="fill:#213566;fill-opacity:1;fill-rule:nonzero;stroke:none"
         id="path4278"
         inkscape:connector-curvature="0" /><path
         d="m 1526.6,237.461 c -1.91,-1.016 -3.96,-1.797 -6.19,-2.305 -2.23,-0.508 -4.61,-0.781 -7.13,-0.781 -6.7,0 -12.19,2.09 -16.44,6.23 -4.28,4.141 -6.41,9.493 -6.41,16.016 0,6.602 2.19,11.973 6.58,16.152 4.38,4.18 10.04,6.27 16.97,6.27 2.41,0 4.59,-0.234 6.57,-0.703 1.95,-0.469 3.79,-1.192 5.52,-2.168 l 0,-7.676 c -1.66,1.172 -3.55,2.07 -5.64,2.715 -2.09,0.644 -4.16,0.977 -6.17,0.977 -4.98,0 -8.99,-1.446 -12.03,-4.317 -3.03,-2.871 -4.53,-6.699 -4.53,-11.504 0,-4.492 1.52,-8.125 4.59,-10.879 3.04,-2.773 7.05,-4.16 11.97,-4.16 2.34,0 4.59,0.332 6.74,0.996 2.14,0.645 4.02,1.582 5.6,2.793 l 0,-7.656"
         style="fill:#213566;fill-opacity:1;fill-rule:nonzero;stroke:none"
         id="path4280"
         inkscape:connector-curvature="0" /><path
         d="m 1566.82,260.762 c -0.37,3.593 -1.72,6.406 -4.05,8.398 -2.3,2.012 -5.31,3.028 -9,3.028 -3.56,0 -6.54,-1.036 -9,-3.106 -2.47,-2.07 -3.91,-4.844 -4.36,-8.32 l 26.41,0 z m 7.16,-5.098 -33.75,0 c 0.28,-4.551 1.61,-8.066 4.03,-10.586 2.42,-2.5 5.64,-3.75 9.69,-3.75 3.08,0 5.68,0.606 7.85,1.817 2.15,1.23 3.84,3.046 5.11,5.488 l 6.02,-3.164 c -1.93,-3.672 -4.51,-6.426 -7.72,-8.301 -3.2,-1.855 -6.99,-2.793 -11.34,-2.793 -6.33,0 -11.39,2.07 -15.16,6.211 -3.75,4.121 -5.64,9.59 -5.64,16.387 0,6.328 1.99,11.582 5.97,15.781 3.99,4.18 8.89,6.289 14.73,6.289 5.98,0 10.84,-1.934 14.59,-5.762 3.75,-3.847 5.62,-8.886 5.62,-15.117 l 0,-2.5"
         style="fill:#213566;fill-opacity:1;fill-rule:nonzero;stroke:none"
         id="path4282"
         inkscape:connector-curvature="0" /><path
         d="m 1640.29,235.742 -7.2,0 0,25.196 c 0,3.984 -0.65,6.933 -1.96,8.847 -1.31,1.914 -3.34,2.871 -6.07,2.871 -3.3,0 -5.65,-1.23 -7.07,-3.691 -1.41,-2.461 -2.13,-6.602 -2.13,-12.422 l 0,-20.801 -7.15,0 0,25.196 c 0,4.218 -0.58,7.226 -1.74,9.023 -1.17,1.797 -3.14,2.695 -5.92,2.695 -3.34,0 -5.8,-1.347 -7.38,-4.062 -1.58,-2.715 -2.36,-6.895 -2.36,-12.578 l 0,-20.274 -7.17,0 0,42.012 7.17,0 0,-5.566 c 1.07,2.304 2.62,4.023 4.61,5.156 1.99,1.133 4.47,1.699 7.46,1.699 2.75,0 5.12,-0.645 7.05,-1.895 1.95,-1.269 3.36,-3.085 4.2,-5.488 1.11,2.403 2.77,4.219 4.94,5.488 2.19,1.25 4.81,1.895 7.85,1.895 4.04,0 7.21,-1.367 9.47,-4.082 2.27,-2.695 3.4,-6.563 3.4,-11.563 l 0,-27.656"
         style="fill:#213566;fill-opacity:1;fill-rule:nonzero;stroke:none"
         id="path4284"
         inkscape:connector-curvature="0" /><path
         d="m 1688.32,256.973 c 0,4.57 -1.31,8.242 -3.91,11.035 -2.61,2.773 -6.01,4.18 -10.19,4.18 -4.26,0 -7.64,-1.348 -10.18,-4.024 -2.54,-2.695 -3.79,-6.328 -3.79,-10.918 0,-4.668 1.35,-8.476 4.07,-11.465 2.69,-2.968 6.13,-4.453 10.25,-4.453 4,0 7.31,1.445 9.88,4.356 2.58,2.89 3.87,6.66 3.87,11.289 z m 7.31,0.097 c 0,-6.621 -1.9,-12.07 -5.67,-16.308 -3.79,-4.258 -8.61,-6.387 -14.51,-6.387 -3.5,0 -6.54,0.723 -9.14,2.148 -2.62,1.407 -4.63,3.477 -6.06,6.172 l 0,-6.953 -7.2,0 0,74.278 7.2,0 0,-38.633 c 1.51,2.461 3.56,4.355 6.16,5.664 2.55,1.328 5.52,1.992 8.86,1.992 5.98,0 10.86,-2.051 14.65,-6.133 3.81,-4.101 5.71,-9.375 5.71,-15.84"
         style="fill:#213566;fill-opacity:1;fill-rule:nonzero;stroke:none"
         id="path4286"
         inkscape:connector-curvature="0" /><path
         d="m 1736.6,260.762 c -0.37,3.593 -1.72,6.406 -4.04,8.398 -2.31,2.012 -5.31,3.028 -9.01,3.028 -3.55,0 -6.54,-1.036 -9,-3.106 -2.46,-2.07 -3.91,-4.844 -4.35,-8.32 l 26.4,0 z m 7.17,-5.098 -33.75,0 c 0.27,-4.551 1.6,-8.066 4.02,-10.586 2.42,-2.5 5.65,-3.75 9.69,-3.75 3.09,0 5.68,0.606 7.85,1.817 2.15,1.23 3.85,3.046 5.12,5.488 l 6.01,-3.164 c -1.93,-3.672 -4.51,-6.426 -7.71,-8.301 -3.2,-1.855 -6.99,-2.793 -11.35,-2.793 -6.33,0 -11.38,2.07 -15.15,6.211 -3.75,4.121 -5.65,9.59 -5.65,16.387 0,6.328 1.99,11.582 5.98,15.781 3.98,4.18 8.88,6.289 14.72,6.289 5.98,0 10.84,-1.934 14.59,-5.762 3.75,-3.847 5.63,-8.886 5.63,-15.117 l 0,-2.5"
         style="fill:#213566;fill-opacity:1;fill-rule:nonzero;stroke:none"
         id="path4288"
         inkscape:connector-curvature="0" /><path
         d="m 1777.21,278.242 -1.72,-7.109 c -0.53,0.312 -1.1,0.547 -1.72,0.722 -0.61,0.157 -1.27,0.235 -1.97,0.235 -3.56,0 -6.21,-1.524 -8.03,-4.551 -1.8,-3.027 -2.7,-7.559 -2.7,-13.594 l 0,-18.203 -7.16,0 0,42.012 7.16,0 0,-7.383 c 1.02,3.027 2.5,5.215 4.44,6.602 1.93,1.367 4.51,2.07 7.73,2.07 0.76,0 1.51,-0.078 2.23,-0.234 0.72,-0.137 1.29,-0.332 1.74,-0.567"
         style="fill:#213566;fill-opacity:1;fill-rule:nonzero;stroke:none"
         id="path4290"
         inkscape:connector-curvature="0" /><path
         d="m 1853.71,235.742 -42.6,0 23.27,27.305 c 4.47,5.273 7.59,9.512 9.33,12.734 1.74,3.223 2.62,6.367 2.62,9.453 0,3.829 -1.29,6.993 -3.87,9.454 -2.58,2.46 -5.94,3.691 -10.08,3.691 -3.94,0 -7.18,-1.406 -9.72,-4.18 -2.54,-2.793 -3.83,-6.308 -3.89,-10.547 l -6.99,0 c 0.04,6.582 1.89,11.797 5.58,15.606 3.69,3.808 8.79,5.703 15.3,5.703 6.34,0 11.44,-1.797 15.25,-5.391 3.81,-3.574 5.7,-8.261 5.7,-14.023 0,-4.16 -1.01,-8.203 -3.02,-12.109 -2.04,-3.926 -6.39,-9.668 -13.11,-17.247 l -12.3,-13.984 28.53,0 0,-6.465"
         style="fill:#213566;fill-opacity:1;fill-rule:nonzero;stroke:none"
         id="path4292"
         inkscape:connector-curvature="0" /><path
         d="m 1903.3,269.766 c 0,8.691 -1.5,15.644 -4.49,20.82 -3.01,5.195 -7.01,7.793 -11.97,7.793 -4.85,0 -8.79,-2.695 -11.84,-8.047 -3.05,-5.371 -4.57,-12.285 -4.57,-20.742 0,-8.418 1.52,-15.274 4.57,-20.606 3.05,-5.332 6.99,-8.007 11.84,-8.007 5.02,0 9.04,2.597 12.01,7.773 2.97,5.195 4.45,12.188 4.45,21.016 z m 7.17,-0.098 c 0,-10.781 -2.15,-19.355 -6.45,-25.723 -4.27,-6.367 -10.02,-9.57 -17.18,-9.57 -7.07,0 -12.8,3.242 -17.15,9.688 -4.38,6.445 -6.55,14.98 -6.55,25.605 0,10.664 2.17,19.219 6.51,25.645 4.33,6.425 10.06,9.648 17.19,9.648 7.11,0 12.83,-3.203 17.14,-9.609 4.32,-6.387 6.49,-14.961 6.49,-25.684"
         style="fill:#213566;fill-opacity:1;fill-rule:nonzero;stroke:none"
         id="path4294"
         inkscape:connector-curvature="0" /><path
         d="m 1961.6,235.742 -42.58,0 23.25,27.305 c 4.49,5.273 7.59,9.512 9.33,12.734 1.76,3.223 2.62,6.367 2.62,9.453 0,3.829 -1.29,6.993 -3.87,9.454 -2.58,2.46 -5.92,3.691 -10.06,3.691 -3.94,0 -7.2,-1.406 -9.72,-4.18 -2.54,-2.793 -3.85,-6.308 -3.89,-10.547 l -6.99,0 c 0.02,6.582 1.89,11.797 5.58,15.606 3.69,3.808 8.79,5.703 15.3,5.703 6.34,0 11.42,-1.797 15.23,-5.391 3.81,-3.574 5.72,-8.261 5.72,-14.023 0,-4.16 -1.01,-8.203 -3.02,-12.109 -2.04,-3.926 -6.41,-9.668 -13.11,-17.247 l -12.3,-13.984 28.51,0 0,-6.465"
         style="fill:#213566;fill-opacity:1;fill-rule:nonzero;stroke:none"
         id="path4296"
         inkscape:connector-curvature="0" /><path
         d="m 2013.03,254.727 c 0,-6.211 -1.88,-11.153 -5.63,-14.825 -3.75,-3.672 -8.88,-5.527 -15.41,-5.527 -6.21,0 -11.09,1.621 -14.65,4.863 -3.53,3.242 -5.41,7.774 -5.62,13.614 l 7.3,0 c 0.18,-3.75 1.41,-6.68 3.71,-8.75 2.31,-2.09 5.4,-3.125 9.26,-3.125 4.42,0 7.83,1.211 10.26,3.652 2.42,2.422 3.63,5.859 3.63,10.273 0,4.258 -1.25,7.559 -3.71,9.903 -2.48,2.343 -6.02,3.515 -10.63,3.515 l -2.24,0 0,6.582 2.16,0 c 4.22,0 7.43,1.036 9.59,3.086 2.19,2.051 3.29,5.059 3.29,9.043 0,3.34 -1.06,6.074 -3.19,8.184 -2.13,2.109 -4.94,3.164 -8.42,3.164 -3.32,0 -6.01,-0.84 -8.1,-2.5 -2.09,-1.641 -3.4,-4.004 -3.89,-7.051 l -6.91,0 c 0.53,5.098 2.48,9.063 5.86,11.895 3.36,2.832 7.79,4.238 13.3,4.238 5.74,0 10.27,-1.602 13.59,-4.805 3.3,-3.222 4.96,-7.519 4.96,-12.949 0,-3.984 -1.01,-7.402 -3.02,-10.254 -2.04,-2.871 -4.75,-4.629 -8.15,-5.293 3.81,-0.683 6.88,-2.558 9.2,-5.625 2.31,-3.086 3.46,-6.855 3.46,-11.308"
         style="fill:#213566;fill-opacity:1;fill-rule:nonzero;stroke:none"
         id="path4298"
         inkscape:connector-curvature="0" /></g></g></svg>